<?xml version="1.0" standalone="no"?><!DOCTYPE svg PUBLIC "-//W3C//DTD SVG 1.1//EN" "http://www.w3.org/Graphics/SVG/1.1/DTD/svg11.dtd"><svg t="1746861806510" class="icon" viewBox="0 0 1066 1024" version="1.1" xmlns="http://www.w3.org/2000/svg" p-id="4744" xmlns:xlink="http://www.w3.org/1999/xlink" width="208.203125" height="200"><path d="M547.84 384a128 128 0 1 1 0 256 128 128 0 0 1 0-256z" fill="#52555a" p-id="4745"></path><path d="M131.84 288v448a192 192 0 0 0 192 192h448a192 192 0 0 0 192-192V288a192 192 0 0 0-192-192H323.84a192 192 0 0 0-192 192zM355.84 512a192 192 0 1 1 384 0 192 192 0 0 1-384 0z m432-160a48 48 0 1 1 0-96 48 48 0 0 1 0 96z" fill="#52555a" p-id="4746"></path></svg>