<?xml version="1.0" standalone="no"?><!DOCTYPE svg PUBLIC "-//W3C//DTD SVG 1.1//EN" "http://www.w3.org/Graphics/SVG/1.1/DTD/svg11.dtd"><svg t="1746862845773" class="icon" viewBox="0 0 1024 1024" version="1.1" xmlns="http://www.w3.org/2000/svg" p-id="6309" xmlns:xlink="http://www.w3.org/1999/xlink" width="200" height="200"><path d="M350.88 827.04a153.6 153.6 0 0 0 45.44 58.72A230.08 230.08 0 0 0 475.36 928a348.8 348.8 0 0 0 106.72 14.88 449.6 449.6 0 0 0 98.88-10.4A531.68 531.68 0 0 0 783.04 896v-136a244.64 244.64 0 0 1-132.96 42.56 129.44 129.44 0 0 1-66.72-17.12A66.24 66.24 0 0 1 553.12 752a352 352 0 0 1-8-96V434.08h208v-135.36h-208V80h-125.12a330.08 330.08 0 0 1-30.88 109.92 236.8 236.8 0 0 1-59.36 74.08 259.2 259.2 0 0 1-88.8 48v122.08h97.28v302.72a249.28 249.28 0 0 0 12.64 90.24z" fill="#52555a" p-id="6310"></path></svg>