<?xml version="1.0" standalone="no"?><!DOCTYPE svg PUBLIC "-//W3C//DTD SVG 1.1//EN" "http://www.w3.org/Graphics/SVG/1.1/DTD/svg11.dtd"><svg t="1746862748713" class="icon" viewBox="0 0 1024 1024" version="1.1" xmlns="http://www.w3.org/2000/svg" p-id="1982" xmlns:xlink="http://www.w3.org/1999/xlink" width="200" height="200"><path d="M200 808.96c81.28 19.52 156.16 0 221.44-32S550.88 672 550.88 672l338.4 164.64s21.28-32 36.64-61.92a681.12 681.12 0 0 0 28-64L599.84 592a496 496 0 0 0 44.8-96 454.56 454.56 0 0 0 26.4-98.56l-182.56-1.6v-62.56l221.12-1.6V288H488.48v-100.64h-108.32V288H173.92v44l206.24-1.44v66.88H214.72V432H555.2a328.96 328.96 0 0 1-16 64c-13.12 35.2-26.56 66.08-26.56 66.08s-160-56-244.16-56-187.36 33.6-197.28 131.84 47.68 151.36 128.8 171.04z m32-249.28c101.6-6.56 238.88 72 238.88 72s-101.28 123.52-220.8 123.52-144-58.72-144-100.8 24.64-88 126.24-94.4z" fill="#52555a" p-id="1983"></path></svg>